<svg width="253" height="154" viewBox="0 0 253 154" fill="none" xmlns="http://www.w3.org/2000/svg">
<g clip-path="url(#clip0)">
<path opacity="0.1" d="M253 91.6313C253.014 98.9334 251.015 106.099 247.223 112.344C247.223 119.983 243.654 126.906 237.864 131.952C236.415 133.213 234.855 134.342 233.202 135.323C233.136 135.365 233.067 135.405 232.999 135.445C232.875 135.518 232.751 135.59 232.625 135.665L232.508 135.734C227.026 138.78 220.847 140.361 214.572 140.323H48.0279C46.701 140.323 45.3859 140.27 44.0826 140.164C39.4508 139.8 34.8995 138.749 30.5789 137.044C29.7356 136.712 28.9085 136.354 28.0976 135.972C27.7113 135.791 27.3287 135.605 26.9498 135.414C26.7131 135.295 26.4765 135.171 26.2421 135.048C23.5175 133.615 20.9614 131.884 18.6211 129.887C11.1019 123.438 6.43996 114.529 6.43996 104.688C2.22199 98.2086 -0.0155752 90.6447 -4.17404e-05 82.9185C-4.17404e-05 61.0449 17.5242 43.3126 39.1442 43.3126C39.8077 43.3126 40.4711 43.3324 41.1346 43.3677C41.2297 43.3677 41.3226 43.3677 41.4176 43.381C45.0623 37.1834 49.9343 31.4888 55.7926 26.476C71.7688 12.8188 95.1182 4.20969 121.128 4.20969C142.983 4.20969 162.959 10.2881 178.261 20.3314C184.059 17.0613 190.609 15.3471 197.269 15.3561C218.885 15.3561 236.413 33.0884 236.413 54.962C236.41 56.346 236.336 57.729 236.192 59.1055C241.403 62.7853 245.65 67.6612 248.575 73.322C251.5 78.9829 253.018 85.2625 253 91.6313V91.6313Z" fill="#5C6AFF"/>
<g opacity="0.2">
<path opacity="0.2" d="M30.601 136.746C30.601 136.848 30.59 136.947 30.5789 137.044C29.7356 136.712 28.9084 136.354 28.0975 135.972C27.6644 135.915 27.2615 135.719 26.9498 135.414C26.7131 135.295 26.4765 135.171 26.2421 135.048C26.2951 134.937 26.355 134.829 26.4212 134.725C26.8768 134.006 27.569 133.556 28.332 133.58C29.095 133.605 29.7562 134.097 30.1653 134.84C30.4782 135.426 30.6287 136.084 30.601 136.746V136.746Z" fill="#3F3D56"/>
<path opacity="0.2" d="M30.7204 132.969C30.7053 133.631 30.5137 134.277 30.1653 134.84C29.7098 135.557 29.0175 136.007 28.2546 135.983L28.0975 135.972C27.6644 135.915 27.2615 135.719 26.9498 135.414C26.7384 135.214 26.56 134.981 26.4212 134.725C26.116 134.138 25.9667 133.483 25.9876 132.821C26.0086 132.16 26.1989 131.515 26.5406 130.948C26.9962 130.229 27.6884 129.779 28.4514 129.803C29.2144 129.827 29.8756 130.319 30.2848 131.063C30.5977 131.648 30.7481 132.306 30.7204 132.969Z" fill="#3F3D56"/>
<path opacity="0.2" d="M30.8406 129.199C30.8947 127.492 29.8796 126.076 28.5733 126.035C27.2671 125.993 26.1644 127.343 26.1103 129.05C26.0563 130.756 27.0714 132.172 28.3776 132.214C29.6839 132.255 30.7866 130.905 30.8406 129.199Z" fill="#3F3D56"/>
<path opacity="0.2" d="M30.959 125.421C31.0131 123.715 29.998 122.298 28.6917 122.257C27.3855 122.216 26.2828 123.566 26.2287 125.272C26.1747 126.978 27.1898 128.395 28.496 128.436C29.8023 128.477 30.905 127.128 30.959 125.421Z" fill="#3F3D56"/>
<path opacity="0.2" d="M31.0975 121.395C31.1488 119.688 30.131 118.272 28.8241 118.233C27.5172 118.194 26.4161 119.546 26.3648 121.253C26.3135 122.96 27.3313 124.376 28.6382 124.415C29.9451 124.454 31.0461 123.102 31.0975 121.395Z" fill="#3F3D56"/>
<path opacity="0.2" d="M20.6712 95.435C20.3598 95.0144 20.079 94.572 19.8309 94.1112L26.0807 93.2883L19.3532 93.1272C18.7528 91.7066 18.4492 90.1786 18.461 88.6369C18.4728 87.0952 18.7997 85.572 19.4217 84.1607L28.2944 89.1139L20.167 82.7486C20.9869 81.4257 22.0714 80.2856 23.3528 79.3995C24.6342 78.5135 26.0849 77.9006 27.6144 77.5991C29.1439 77.2975 30.7193 77.3138 32.2421 77.647C33.765 77.9802 35.2027 78.623 36.4654 79.5354C37.728 80.4478 38.7886 81.6101 39.5807 82.9498C40.3729 84.2894 40.8797 85.7776 41.0694 87.3215C41.2592 88.8653 41.1278 90.4316 40.6836 91.9225C40.2393 93.4134 39.4917 94.7969 38.4874 95.9866C38.9713 96.6413 39.3829 97.3463 39.7148 98.0893L31.5122 102.019L40.2102 99.4087C40.7579 101.212 40.8462 103.123 40.467 104.968C40.0878 106.814 39.2531 108.536 38.0385 109.979C39.3013 111.689 40.0564 113.718 40.2176 115.835C40.3788 117.953 39.9394 120.072 38.9498 121.952C37.9602 123.832 36.4602 125.397 34.6215 126.466C32.7827 127.536 30.6794 128.067 28.552 128C26.4246 127.933 24.359 127.271 22.5915 126.088C20.8239 124.905 19.4257 123.249 18.5568 121.311C17.6878 119.373 17.3832 117.229 17.6777 115.126C17.9723 113.023 18.8541 111.045 20.2223 109.419C18.7136 107.376 17.937 104.887 18.0172 102.351C18.0974 99.8144 19.0298 97.3788 20.6646 95.435H20.6712Z" fill="#5C6AFF"/>
<path opacity="0.1" d="M40.6923 103.065C40.6139 105.602 39.6787 108.038 38.0385 109.979C39.3013 111.689 40.0564 113.718 40.2176 115.835C40.3788 117.953 39.9394 120.072 38.9498 121.952C37.9602 123.832 36.4602 125.397 34.6215 126.466C32.7827 127.536 30.6794 128.067 28.552 128C26.4246 127.933 24.359 127.271 22.5915 126.088C20.8239 124.905 19.4257 123.249 18.5568 121.311C17.6878 119.373 17.3832 117.229 17.6777 115.126C17.9723 113.023 18.8541 111.045 20.2223 109.419C18.7693 107.449 40.7321 101.794 40.6923 103.065Z" fill="black"/>
</g>
<path d="M211.865 30.5379V136.261C211.865 137.338 211.436 138.371 210.673 139.133C209.909 139.895 208.874 140.323 207.794 140.323H45.2061C44.8259 140.323 44.4477 140.27 44.0826 140.164C43.2327 139.922 42.4851 139.41 41.9531 138.705C41.4212 138.001 41.1338 137.143 41.1346 136.261V89.0808C41.1346 88.8403 41.1346 88.602 41.1346 88.3637V43.3677C41.2297 43.3677 41.3226 43.3677 41.4177 43.381C45.0623 37.1834 49.9344 31.4888 55.7927 26.476H207.794C208.874 26.476 209.909 26.904 210.673 27.6657C211.436 28.4275 211.865 29.4606 211.865 30.5379Z" fill="white"/>
<path d="M184.004 40.2061H161.476C159.279 40.2061 157.499 41.9821 157.499 44.173C157.499 46.364 159.279 48.14 161.476 48.14H184.004C186.201 48.14 187.981 46.364 187.981 44.173C187.981 41.9821 186.201 40.2061 184.004 40.2061Z" fill="#3F3D56"/>
<path opacity="0.1" d="M183.345 41.5321H162.132C160.67 41.5321 159.485 42.714 159.485 44.1719C159.485 45.6299 160.67 46.8118 162.132 46.8118H183.345C184.807 46.8118 185.993 45.6299 185.993 44.1719C185.993 42.714 184.807 41.5321 183.345 41.5321Z" fill="black"/>
<path d="M182.974 41.8211H178.113C176.812 41.8211 175.758 42.8731 175.758 44.1708V44.1731C175.758 45.4708 176.812 46.5228 178.113 46.5228H182.974C184.275 46.5228 185.329 45.4708 185.329 44.1731V44.1708C185.329 42.8731 184.275 41.8211 182.974 41.8211Z" fill="#5C6AFF"/>
<path d="M180.47 45.6425C181.284 45.6425 181.943 44.9846 181.943 44.1731C181.943 43.3615 181.284 42.7036 180.47 42.7036C179.657 42.7036 178.997 43.3615 178.997 44.1731C178.997 44.9846 179.657 45.6425 180.47 45.6425Z" fill="white"/>
<path d="M184.004 92.5073H161.476C159.279 92.5073 157.499 94.2833 157.499 96.4742C157.499 98.6651 159.279 100.441 161.476 100.441H184.004C186.201 100.441 187.981 98.6651 187.981 96.4742C187.981 94.2833 186.201 92.5073 184.004 92.5073Z" fill="#3F3D56"/>
<path opacity="0.1" d="M183.345 93.8332H162.132C160.67 93.8332 159.485 95.0152 159.485 96.4731C159.485 97.9311 160.67 99.113 162.132 99.113H183.345C184.807 99.113 185.993 97.9311 185.993 96.4731C185.993 95.0152 184.807 93.8332 183.345 93.8332Z" fill="black"/>
<path d="M182.974 94.1223H178.113C176.812 94.1223 175.758 95.1743 175.758 96.472V96.4742C175.758 97.772 176.812 98.824 178.113 98.824H182.974C184.275 98.824 185.329 97.772 185.329 96.4742V96.472C185.329 95.1743 184.275 94.1223 182.974 94.1223Z" fill="#5C6AFF"/>
<path d="M180.47 97.9437C181.284 97.9437 181.943 97.2858 181.943 96.4742C181.943 95.6627 181.284 95.0048 180.47 95.0048C179.657 95.0048 178.997 95.6627 178.997 96.4742C178.997 97.2858 179.657 97.9437 180.47 97.9437Z" fill="white"/>
<path d="M184.004 118.657H161.476C159.279 118.657 157.499 120.433 157.499 122.624C157.499 124.815 159.279 126.591 161.476 126.591H184.004C186.201 126.591 187.981 124.815 187.981 122.624C187.981 120.433 186.201 118.657 184.004 118.657Z" fill="#3F3D56"/>
<path opacity="0.1" d="M183.345 119.985H162.132C160.67 119.985 159.485 121.167 159.485 122.625C159.485 124.083 160.67 125.265 162.132 125.265H183.345C184.807 125.265 185.993 124.083 185.993 122.625C185.993 121.167 184.807 119.985 183.345 119.985Z" fill="black"/>
<path d="M182.974 120.274H178.113C176.812 120.274 175.758 121.326 175.758 122.624V122.626C175.758 123.924 176.812 124.976 178.113 124.976H182.974C184.275 124.976 185.329 123.924 185.329 122.626V122.624C185.329 121.326 184.275 120.274 182.974 120.274Z" fill="#5C6AFF"/>
<path d="M180.47 124.093C181.284 124.093 181.943 123.435 181.943 122.624C181.943 121.812 181.284 121.154 180.47 121.154C179.657 121.154 178.997 121.812 178.997 122.624C178.997 123.435 179.657 124.093 180.47 124.093Z" fill="white"/>
<path d="M80.4824 35.2109H67.3746C66.0738 35.2109 65.0193 36.2629 65.0193 37.5607V37.5629C65.0193 38.8606 66.0738 39.9126 67.3746 39.9126H80.4824C81.7832 39.9126 82.8377 38.8606 82.8377 37.5629V37.5607C82.8377 36.2629 81.7832 35.2109 80.4824 35.2109Z" fill="#5C6AFF"/>
<path d="M112.143 41.8211H67.3746C66.0738 41.8211 65.0193 42.8731 65.0193 44.1708V44.1731C65.0193 45.4708 66.0738 46.5228 67.3746 46.5228H112.143C113.444 46.5228 114.498 45.4708 114.498 44.1731V44.1708C114.498 42.8731 113.444 41.8211 112.143 41.8211Z" fill="#5C6AFF"/>
<path d="M112.143 48.4335H67.3746C66.0738 48.4335 65.0193 49.4855 65.0193 50.7832V50.7854C65.0193 52.0832 66.0738 53.1352 67.3746 53.1352H112.143C113.444 53.1352 114.498 52.0832 114.498 50.7854V50.7832C114.498 49.4855 113.444 48.4335 112.143 48.4335Z" fill="#5C6AFF"/>
<g opacity="0.5">
<path opacity="0.5" d="M80.4824 61.3604H67.3746C66.0738 61.3604 65.0193 62.4124 65.0193 63.7101V63.7123C65.0193 65.0101 66.0738 66.0621 67.3746 66.0621H80.4824C81.7832 66.0621 82.8377 65.0101 82.8377 63.7123V63.7101C82.8377 62.4124 81.7832 61.3604 80.4824 61.3604Z" fill="#5C6AFF"/>
<path opacity="0.5" d="M99.5967 67.9728H67.3746C66.0738 67.9728 65.0193 69.0248 65.0193 70.3225V70.3247C65.0193 71.6225 66.0738 72.6745 67.3746 72.6745H99.5967C100.897 72.6745 101.952 71.6225 101.952 70.3247V70.3225C101.952 69.0248 100.897 67.9728 99.5967 67.9728Z" fill="#5C6AFF"/>
<path opacity="0.5" d="M112.143 74.583H67.3746C66.0738 74.583 65.0193 75.635 65.0193 76.9327V76.9349C65.0193 78.2326 66.0738 79.2847 67.3746 79.2847H112.143C113.444 79.2847 114.498 78.2326 114.498 76.9349V76.9327C114.498 75.635 113.444 74.583 112.143 74.583Z" fill="#5C6AFF"/>
</g>
<path d="M80.4824 87.5121H67.3746C66.0738 87.5121 65.0193 88.5641 65.0193 89.8618V89.864C65.0193 91.1618 66.0738 92.2138 67.3746 92.2138H80.4824C81.7832 92.2138 82.8377 91.1618 82.8377 89.864V89.8618C82.8377 88.5641 81.7832 87.5121 80.4824 87.5121Z" fill="#5C6AFF"/>
<path d="M112.143 94.1223H67.3746C66.0738 94.1223 65.0193 95.1743 65.0193 96.472V96.4742C65.0193 97.772 66.0738 98.824 67.3746 98.824H112.143C113.444 98.824 114.498 97.772 114.498 96.4742V96.472C114.498 95.1743 113.444 94.1223 112.143 94.1223Z" fill="#5C6AFF"/>
<path d="M93.4044 100.735H67.3746C66.0738 100.735 65.0193 101.787 65.0193 103.084V103.087C65.0193 104.384 66.0738 105.436 67.3746 105.436H93.4044C94.7052 105.436 95.7597 104.384 95.7597 103.087V103.084C95.7597 101.787 94.7052 100.735 93.4044 100.735Z" fill="#5C6AFF"/>
<path d="M80.4824 113.662H67.3746C66.0738 113.662 65.0193 114.714 65.0193 116.011V116.014C65.0193 117.311 66.0738 118.363 67.3746 118.363H80.4824C81.7832 118.363 82.8377 117.311 82.8377 116.014V116.011C82.8377 114.714 81.7832 113.662 80.4824 113.662Z" fill="#5C6AFF"/>
<path d="M112.143 120.274H67.3746C66.0738 120.274 65.0193 121.326 65.0193 122.624V122.626C65.0193 123.924 66.0738 124.976 67.3746 124.976H112.143C113.444 124.976 114.498 123.924 114.498 122.626V122.624C114.498 121.326 113.444 120.274 112.143 120.274Z" fill="#5C6AFF"/>
<path d="M102.472 126.884H67.3746C66.0738 126.884 65.0193 127.936 65.0193 129.234V129.236C65.0193 130.534 66.0738 131.586 67.3746 131.586H102.472C103.772 131.586 104.827 130.534 104.827 129.236V129.234C104.827 127.936 103.772 126.884 102.472 126.884Z" fill="#5C6AFF"/>
<path opacity="0.7" d="M57.5 57.3625H201.692" stroke="#3F3D56" stroke-miterlimit="10" stroke-linecap="round"/>
<path opacity="0.7" d="M57.5 83.9488H201.692" stroke="#3F3D56" stroke-miterlimit="10" stroke-linecap="round"/>
<path opacity="0.7" d="M57.5 110.535H201.692" stroke="#3F3D56" stroke-miterlimit="10" stroke-linecap="round"/>
<path opacity="0.7" d="M57.5 137.783H201.692" stroke="#3F3D56" stroke-miterlimit="10" stroke-linecap="round"/>
<path opacity="0.1" d="M175.817 154C193.855 154 208.477 152.963 208.477 151.683C208.477 150.404 193.855 149.367 175.817 149.367C157.78 149.367 143.157 150.404 143.157 151.683C143.157 152.963 157.78 154 175.817 154Z" fill="#5C6AFF"/>
<path opacity="0.1" d="M15.5958 35.9214C18.2377 35.9214 20.3794 33.7847 20.3794 31.149C20.3794 28.5134 18.2377 26.3767 15.5958 26.3767C12.9539 26.3767 10.8123 28.5134 10.8123 31.149C10.8123 33.7847 12.9539 35.9214 15.5958 35.9214Z" fill="#5C6AFF"/>
<path opacity="0.1" d="M35.5328 9.54461C38.1747 9.54461 40.3164 7.40797 40.3164 4.7723C40.3164 2.13663 38.1747 0 35.5328 0C32.8909 0 30.7493 2.13663 30.7493 4.7723C30.7493 7.40797 32.8909 9.54461 35.5328 9.54461Z" fill="#5C6AFF"/>
<path opacity="0.1" d="M33.9117 30.8909C38.3393 30.8909 41.9285 27.3101 41.9285 22.8929C41.9285 18.4758 38.3393 14.895 33.9117 14.895C29.4842 14.895 25.8949 18.4758 25.8949 22.8929C25.8949 27.3101 29.4842 30.8909 33.9117 30.8909Z" fill="#5C6AFF"/>
<path d="M184.004 66.3555H161.476C159.279 66.3555 157.499 68.1316 157.499 70.3225C157.499 72.5134 159.279 74.2895 161.476 74.2895H184.004C186.201 74.2895 187.981 72.5134 187.981 70.3225C187.981 68.1316 186.201 66.3555 184.004 66.3555Z" fill="#3F3D56"/>
<path opacity="0.1" d="M183.345 67.6837H162.132C160.67 67.6837 159.485 68.8657 159.485 70.3236C159.485 71.7816 160.67 72.9635 162.132 72.9635H183.345C184.807 72.9635 185.993 71.7816 185.993 70.3236C185.993 68.8657 184.807 67.6837 183.345 67.6837Z" fill="black"/>
<path d="M160.374 145.839C160.721 145.788 161.069 145.717 161.409 145.638C161.365 145.978 161.266 146.309 161.117 146.618C160.779 147.257 160.118 147.644 159.509 148.036C159.426 147.958 159.317 147.911 159.203 147.904C159.088 147.896 158.975 147.928 158.881 147.994C158.149 148.436 157.566 149.058 156.789 149.437C156.517 149.57 156.234 149.676 155.969 149.823C155.325 150.215 154.792 150.764 154.421 151.419C154.2 151.761 154.02 152.211 154.237 152.55C154.32 152.665 154.427 152.761 154.551 152.831C154.866 153.05 155.244 153.162 155.628 153.151C155.849 153.131 156.071 153.047 156.312 153.009C156.615 152.956 156.924 152.983 157.229 152.956C157.672 152.899 158.106 152.787 158.521 152.623L160.04 152.094C160.469 151.955 160.887 151.784 161.29 151.582C161.531 151.452 161.759 151.299 162.004 151.18C162.28 151.058 162.566 150.958 162.858 150.88L163.72 150.629C163.844 150.581 163.978 150.564 164.109 150.578C164.229 150.6 164.331 150.675 164.452 150.706C164.638 150.739 164.829 150.721 165.005 150.653L166.005 150.371C166.216 150.323 166.417 150.239 166.6 150.123C167.057 149.799 167.139 149.155 167.137 148.592C167.135 147.74 167.038 146.891 166.85 146.059C166.722 146.111 166.61 146.196 166.524 146.304C166.422 146.161 166.312 146.023 166.195 145.892C165.734 145.357 165.394 144.731 165.198 144.054C165.559 143.786 165.86 143.447 166.082 143.057C165.554 141.047 165.012 139.006 163.937 137.232C163.585 136.654 163.183 136.111 162.831 135.542C161.785 133.887 161.571 131.791 160.374 130.247C160.261 130.09 160.199 129.902 160.199 129.708C160.199 129.515 160.261 129.327 160.374 129.17C160.511 128.989 160.732 128.819 160.69 128.594C160.659 128.433 160.491 128.285 160.556 128.135C160.587 128.062 160.662 128.023 160.719 127.97C160.923 127.78 160.896 127.46 160.916 127.182C160.96 126.48 161.378 125.858 161.781 125.293C161.862 125.158 161.971 125.041 162.099 124.949C162.208 124.883 162.336 124.852 162.444 124.786C162.825 124.545 162.798 123.987 162.979 123.572C163.218 123.025 163.82 122.749 164.213 122.306C164.715 121.741 164.844 120.956 165.372 120.464C165.427 120.412 165.485 120.365 165.547 120.323C165.318 121.159 165.213 122.025 165.235 122.893C165.184 125.878 165.927 128.967 165.58 131.939C165.306 134.291 166.746 136.636 168.787 137.812C169.586 138.237 170.422 138.591 171.284 138.869C172.562 139.326 173.836 139.796 175.09 140.321C175.974 140.691 176.847 141.089 177.708 141.514C178.771 142.032 179.804 142.608 180.804 143.238C182.034 144.025 183.266 144.824 184.139 146C184.674 145.973 185.188 145.784 185.612 145.459C185.948 145.724 186.355 145.925 186.672 146.218C187.108 146.672 187.401 147.245 187.512 147.864H187.379C187.395 148.158 187.408 148.451 187.424 148.747C187.435 148.822 187.424 148.899 187.39 148.967C187.358 149.011 187.318 149.048 187.271 149.075L186.59 149.537C186.094 149.87 185.548 150.291 185.522 150.889C185.508 151.063 185.561 151.236 185.67 151.372C185.836 151.527 186.049 151.623 186.276 151.646C187.461 151.895 188.675 152.138 189.876 151.977C190.447 151.9 191.037 151.712 191.409 151.271C191.749 150.869 191.851 150.324 191.944 149.806C192.092 148.923 192.216 148.021 192.313 147.125C192.343 146.516 192.467 145.916 192.68 145.345C192.697 145.295 192.731 145.253 192.775 145.225C192.826 145.203 192.886 145.225 192.939 145.203C192.992 145.181 193.028 145.1 193.045 145.033C193.264 144.162 193.371 143.266 193.362 142.368C193.372 142.135 193.337 141.902 193.258 141.682C193.164 141.498 193.031 141.337 192.867 141.211C192.703 141.085 192.513 140.997 192.311 140.954C191.908 140.872 191.499 140.824 191.088 140.808C190.745 140.775 190.405 140.713 190.073 140.623C189.938 140.572 189.794 140.553 189.651 140.568C189.579 140.577 189.514 140.613 189.467 140.666C189.42 140.72 189.394 140.79 189.394 140.861C189.402 140.912 189.42 140.961 189.447 141.005L189.102 140.936C188.823 140.886 188.439 140.764 188.021 140.663C188.021 140.592 188.025 140.519 188.034 140.442C188.035 140.363 188.013 140.286 187.972 140.218C187.93 140.151 187.871 140.097 187.799 140.063L181.957 136.947L180.864 136.365C178.471 135.087 175.999 133.907 173.599 132.629C173.44 132.678 173.307 132.495 173.261 132.332C173.214 132.168 173.181 131.974 173.029 131.901C172.953 131.866 172.854 131.868 172.807 131.804C172.768 131.747 172.753 131.676 172.765 131.608C172.843 130.445 173.677 129.373 173.511 128.221C173.44 127.729 173.186 127.244 173.29 126.761C173.367 126.427 173.606 126.156 173.732 125.838C174.019 125.128 173.732 124.274 174.046 123.579C174.255 123.122 174.397 122.638 174.468 122.141C174.616 121.15 174.915 120.187 175.353 119.286C175.565 118.831 175.842 118.409 176.176 118.035C176.35 117.845 176.547 117.675 176.715 117.479C177.224 116.872 177.412 116.064 177.556 115.272C177.817 113.858 177.998 112.391 177.671 110.987C177.56 110.511 177.392 110.037 177.399 109.547C177.399 108.96 177.635 108.287 177.35 107.817C177.644 107.582 177.84 107.246 177.901 106.875C177.905 106.741 177.931 106.609 177.978 106.484C178.075 106.348 178.201 106.235 178.347 106.153C178.576 105.98 178.75 105.745 178.851 105.477C178.952 105.209 178.975 104.918 178.918 104.638C179.221 104.774 179.539 104.468 179.683 104.166C179.827 103.863 179.935 103.504 180.243 103.367C180.451 103.279 180.685 103.332 180.906 103.274C181.258 103.184 181.472 102.833 181.72 102.575C182.224 102.032 182.939 101.752 183.6 101.419C185.559 100.424 187.156 98.8504 188.72 97.3016C189.535 96.5462 190.275 95.7143 190.931 94.8173C191.106 94.5591 191.265 94.2922 191.415 94.0186L191.455 93.9987L191.468 94.0473C191.493 94.1443 191.522 94.2414 191.55 94.3363C191.621 94.5569 191.701 94.793 191.771 95.018C192.01 95.6799 192.269 96.386 192.756 96.8868C192.905 97.0396 193.074 97.171 193.26 97.2773C193.662 97.4928 194.103 97.6249 194.558 97.6656C194.73 97.6877 194.905 97.7009 195.08 97.7098C195.255 97.7186 195.429 97.7252 195.602 97.7296L199.18 97.8245C197.95 96.0462 197.853 93.734 197.935 91.5695C198.141 86.0096 199.227 80.3989 198.218 74.9271C198.096 74.2652 197.935 73.6033 197.53 73.0716C197 72.3766 196.128 72.0413 195.279 71.8449C194.43 71.6485 193.547 71.5537 192.753 71.1984C192.09 70.8962 191.48 70.4108 190.763 70.2519C190.235 70.1637 189.695 70.1726 189.171 70.2784C188.525 70.374 187.883 70.4873 187.244 70.6182L187.09 70.6513H187.096L186.99 70.6755H186.961L186.866 70.6976H186.831L186.742 70.7219L186.703 70.7329L186.621 70.7594L186.574 70.7748L186.499 70.7991L186.45 70.819L186.38 70.8454L186.327 70.8675L186.262 70.8962L186.209 70.9226L186.15 70.9513L186.097 70.9822L186.041 71.0131L185.988 71.0484L185.937 71.0815L185.884 71.119L185.84 71.1543L185.789 71.1984L185.747 71.2359C185.73 71.2518 185.714 71.2687 185.699 71.2867L185.661 71.3242C185.644 71.3438 185.627 71.3644 185.612 71.386C185.612 71.397 185.592 71.408 185.584 71.4213C185.575 71.4345 185.544 71.4786 185.524 71.5117V71.525C185.474 71.6079 185.433 71.6959 185.402 71.7875C185.387 71.8339 185.371 71.8802 185.36 71.9265C185.337 72.0209 185.321 72.1167 185.312 72.2134C185.312 72.2619 185.312 72.3126 185.3 72.3612C185.3 72.4583 185.3 72.5575 185.3 72.6546C185.309 72.8203 185.328 72.9853 185.356 73.1488C184.571 73.6113 183.917 74.2646 183.455 75.0476C182.992 75.8307 182.736 76.718 182.71 77.6265C182.685 78.5351 182.89 79.4354 183.308 80.2432C183.726 81.0509 184.342 81.7398 185.099 82.2456C185.11 82.3327 185.116 82.4203 185.117 82.5081V82.5655C185.105 82.8776 185.072 83.1886 185.02 83.4966C184.145 83.3272 183.256 83.2481 182.366 83.2605C181.835 83.2605 181.3 83.309 180.765 83.3509C180.191 82.6605 179.656 81.9387 179.163 81.1887L177.982 79.4612C177.577 78.8967 177.208 78.3071 176.877 77.6961C176.587 77.1357 176.361 76.54 176.039 75.9972C175.375 74.8786 174.291 73.9277 174.157 72.6326L173.845 72.6965C173.674 72.4185 173.46 72.1251 173.38 71.964C172.953 71.0449 172.624 70.0836 172.398 69.0958C172.29 68.5839 172.208 68.05 171.927 67.6087C171.736 67.3331 171.504 67.0876 171.239 66.8806C170.813 66.48 170.313 66.1654 169.767 65.954C169.523 65.8656 169.263 65.8278 169.004 65.843C168.745 65.8581 168.492 65.9259 168.261 66.0422C168.188 66.0089 168.115 65.9794 168.039 65.954C167.766 65.85 167.471 65.8134 167.18 65.8472C166.889 65.881 166.61 65.9842 166.367 66.1481C165.903 66.5034 165.704 67.1123 165.633 67.6926C165.511 68.4955 165.649 69.3164 166.027 70.0357C166.469 70.8256 167.261 71.3595 167.916 71.9861C168.371 72.4264 168.77 72.9214 169.103 73.4599C169.206 74.6518 169.175 75.8513 169.012 77.0364C168.928 77.5439 168.791 78.0425 168.752 78.5544C168.59 80.4033 169.554 82.2522 169.209 84.0702C169.152 84.3435 169.182 84.6277 169.294 84.8835C169.406 85.1393 169.595 85.3539 169.835 85.4977C170.331 85.7647 170.91 85.8 171.454 85.939C172.522 86.2126 173.444 86.8943 174.524 87.148C175.021 87.2672 175.539 87.2893 176.034 87.4216L176.112 87.4459C175.73 87.8768 175.458 88.3928 175.318 88.9506C175.096 89.8773 175.304 90.8679 175.083 91.7946C174.902 92.558 174.446 93.2243 173.997 93.8708C173.133 95.1181 172.268 96.3683 171.401 97.6215C170.822 98.5004 170.182 99.3386 169.488 100.13C168.296 101.43 166.239 102.46 165.633 104.022C165.62 103.985 165.602 103.947 165.589 103.91C164.731 104.538 164.41 105.71 163.727 106.524C163.393 106.919 162.982 107.239 162.621 107.605C162.175 108.078 161.766 108.585 161.398 109.121C160.381 110.529 159.357 111.943 158.629 113.52C158.249 114.341 157.955 115.195 157.652 116.044C156.462 119.391 154.52 122.566 153.713 126.028C153.516 126.873 153.001 127.637 152.924 128.501C152.837 129.424 153.26 130.311 153.698 131.125C154.361 132.369 155.1 133.578 155.688 134.858C156.035 135.604 156.336 136.374 156.723 137.102C157.145 137.896 157.663 138.633 158.105 139.416C159.182 141.426 159.801 143.648 160.374 145.839ZM175.006 82.6162L174.9 82.5633C174.503 82.3921 174.14 82.1524 173.827 81.855C172.874 80.8401 172.465 79.3111 172.166 77.9454C172.131 77.7821 172.1 77.6211 172.071 77.4578C173.228 79.0971 174.32 80.7916 175.006 82.6206V82.6162Z" fill="url(#paint0_linear)"/>
<path d="M170.66 69.3672C170.552 68.8575 170.472 68.328 170.191 67.8911C169.999 67.6168 169.766 67.3729 169.501 67.1675C169.072 66.7695 168.571 66.4572 168.024 66.2474C167.75 66.1448 167.455 66.1087 167.165 66.1421C166.874 66.1754 166.595 66.2774 166.352 66.4394C165.885 66.7924 165.688 67.3969 165.615 67.9838C165.493 68.7817 165.631 69.5977 166.009 70.3115C166.462 71.0969 167.245 71.6221 167.902 72.2487C168.379 72.7076 168.794 73.2268 169.136 73.7931C169.292 74.0867 169.481 74.362 169.698 74.6138C169.808 74.7372 169.945 74.8335 170.098 74.8952C170.252 74.9568 170.418 74.9821 170.583 74.9691C170.858 74.8963 171.109 74.7489 171.306 74.5432C171.576 74.3072 172.301 73.8813 172.323 73.5129C172.341 73.2106 171.775 72.5266 171.635 72.242C171.21 71.3206 170.883 70.357 170.66 69.3672V69.3672Z" fill="#FBBEBE"/>
<path opacity="0.1" d="M170.66 69.3672C170.552 68.8575 170.472 68.328 170.191 67.8911C169.999 67.6168 169.766 67.3729 169.501 67.1675C169.072 66.7695 168.571 66.4572 168.024 66.2474C167.75 66.1448 167.455 66.1087 167.165 66.1421C166.874 66.1754 166.595 66.2774 166.352 66.4394C165.885 66.7924 165.688 67.3969 165.615 67.9838C165.493 68.7817 165.631 69.5977 166.009 70.3115C166.462 71.0969 167.245 71.6221 167.902 72.2487C168.379 72.7076 168.794 73.2268 169.136 73.7931C169.292 74.0867 169.481 74.362 169.698 74.6138C169.808 74.7372 169.945 74.8335 170.098 74.8952C170.252 74.9568 170.418 74.9821 170.583 74.9691C170.858 74.8963 171.109 74.7489 171.306 74.5432C171.576 74.3072 172.301 73.8813 172.323 73.5129C172.341 73.2106 171.775 72.5266 171.635 72.242C171.21 71.3206 170.883 70.357 170.66 69.3672V69.3672Z" fill="black"/>
<path d="M185.957 83.8915C184.791 83.5796 183.586 83.4311 182.379 83.4502C180.364 83.4789 178.29 83.9665 176.37 83.3487C175.877 83.181 175.396 82.9767 174.933 82.7376C174.536 82.5679 174.172 82.3297 173.858 82.0337C172.903 81.0255 172.491 79.5053 172.195 78.1506C171.933 76.7875 171.781 75.4055 171.741 74.0181C171.244 74.2498 170.718 74.4771 170.171 74.4307C169.625 74.3844 169.066 73.9652 169.066 73.418C169.147 74.7021 169.207 76.0016 168.993 77.2681C168.909 77.7711 168.771 78.2675 168.734 78.775C168.57 80.6129 169.537 82.4485 169.192 84.2599C169.134 84.5317 169.163 84.8147 169.275 85.0689C169.388 85.3232 169.577 85.5357 169.817 85.6764C170.313 85.9434 170.894 85.9765 171.439 86.1177C172.507 86.389 173.429 87.0664 174.513 87.3201C175.01 87.4371 175.53 87.4591 176.025 87.5915C176.731 87.779 177.374 88.1828 178.095 88.3086C178.635 88.4056 179.201 88.3394 179.738 88.3858C180.214 88.4255 180.678 88.549 181.156 88.5623C182.324 88.591 183.425 87.9335 184.199 87.0598C184.973 86.1861 185.466 84.9439 185.957 83.8915Z" fill="#F86D70"/>
<path opacity="0.1" d="M185.957 83.8915C184.791 83.5796 183.586 83.4311 182.379 83.4502C180.364 83.4789 178.29 83.9665 176.37 83.3487C175.877 83.181 175.396 82.9767 174.933 82.7376C174.536 82.5679 174.172 82.3297 173.858 82.0337C172.903 81.0255 172.491 79.5053 172.195 78.1506C171.933 76.7875 171.781 75.4055 171.741 74.0181C171.244 74.2498 170.718 74.4771 170.171 74.4307C169.625 74.3844 169.066 73.9652 169.066 73.418C169.147 74.7021 169.207 76.0016 168.993 77.2681C168.909 77.7711 168.771 78.2675 168.734 78.775C168.57 80.6129 169.537 82.4485 169.192 84.2599C169.134 84.5317 169.163 84.8147 169.275 85.0689C169.388 85.3232 169.577 85.5357 169.817 85.6764C170.313 85.9434 170.894 85.9765 171.439 86.1177C172.507 86.389 173.429 87.0664 174.513 87.3201C175.01 87.4371 175.53 87.4591 176.025 87.5915C176.731 87.779 177.374 88.1828 178.095 88.3086C178.635 88.4056 179.201 88.3394 179.738 88.3858C180.214 88.4255 180.678 88.549 181.156 88.5623C182.324 88.591 183.425 87.9335 184.199 87.0598C184.973 86.1861 185.466 84.9439 185.957 83.8915Z" fill="black"/>
<path d="M189.155 140.691C189.516 140.736 189.866 140.845 190.188 141.014C190.608 141.311 190.922 141.735 191.086 142.223C191.568 143.41 191.667 144.716 191.69 145.998C191.707 147.032 191.672 148.091 191.3 149.058C191.199 149.363 191.023 149.638 190.789 149.859C190.582 150.021 190.342 150.137 190.086 150.198C189.531 150.351 188.89 150.349 188.436 149.996C187.932 149.603 187.806 148.908 187.7 148.279C187.556 147.432 187.353 146.529 186.72 145.945C186.251 145.503 185.579 145.283 185.238 144.749C184.832 144.107 185.046 143.268 185.305 142.554C185.526 141.934 185.86 140.678 186.51 140.36C187.16 140.043 188.481 140.57 189.155 140.691Z" fill="#FBBEBE"/>
<path d="M165.202 143.736C165.397 144.429 165.743 145.07 166.215 145.614C166.502 145.945 166.863 146.346 166.712 146.757C166.649 146.896 166.556 147.02 166.44 147.121C164.304 149.203 161.316 150.21 158.353 150.589C158.306 150.601 158.256 150.601 158.209 150.589C158.123 150.551 158.101 150.441 158.092 150.346C158.043 150.039 158.043 149.725 158.092 149.417C158.236 148.696 158.87 148.186 159.492 147.787C160.113 147.388 160.792 147.004 161.137 146.353C161.568 145.545 161.387 144.493 161.9 143.736C162.316 143.121 163.09 142.854 163.826 142.743C164.081 142.704 164.622 142.426 164.839 142.554C165.056 142.681 165.127 143.482 165.202 143.736Z" fill="#FBBEBE"/>
<path d="M189.447 140.616C189.447 140.545 189.473 140.476 189.52 140.422C189.567 140.369 189.633 140.334 189.704 140.325C189.847 140.311 189.991 140.329 190.126 140.378C190.458 140.47 190.798 140.533 191.141 140.566C191.553 140.58 191.962 140.628 192.366 140.709C192.568 140.751 192.758 140.838 192.922 140.963C193.086 141.088 193.221 141.247 193.315 141.431C193.394 141.65 193.429 141.882 193.419 142.114C193.428 143.007 193.322 143.897 193.103 144.762C193.085 144.828 193.058 144.905 192.994 144.93C192.93 144.954 192.884 144.93 192.833 144.954C192.81 144.967 192.79 144.984 192.773 145.004C192.757 145.025 192.745 145.048 192.738 145.073C192.524 145.639 192.399 146.234 192.368 146.838C192.271 147.721 192.147 148.617 191.999 149.499C191.913 150.015 191.805 150.558 191.464 150.955C191.09 151.397 190.5 151.58 189.929 151.657C188.726 151.816 187.512 151.575 186.324 151.328C186.098 151.306 185.884 151.21 185.716 151.057C185.607 150.921 185.554 150.749 185.568 150.576C185.595 149.982 186.143 149.563 186.636 149.232L187.32 148.775C187.367 148.749 187.408 148.712 187.439 148.667C187.473 148.599 187.484 148.522 187.472 148.447L187.428 147.564C187.88 147.572 188.322 147.702 188.707 147.941C189.091 148.179 189.403 148.517 189.611 148.919C189.704 149.106 189.794 149.325 189.989 149.398C190.115 149.426 190.248 149.405 190.359 149.338C190.47 149.271 190.551 149.163 190.584 149.038C190.642 148.785 190.635 148.522 190.564 148.272C190.164 146.139 190.259 143.946 190.015 141.79C190 141.547 189.924 141.312 189.794 141.106C189.69 140.958 189.471 140.815 189.447 140.616Z" fill="#F86D70"/>
<path d="M162.504 72.6745H167.365C168.666 72.6745 169.72 71.6225 169.72 70.3247V70.3225C169.72 69.0248 168.666 67.9728 167.365 67.9728H162.504C161.203 67.9728 160.149 69.0248 160.149 70.3225V70.3247C160.149 71.6225 161.203 72.6745 162.504 72.6745Z" fill="#5C6AFF"/>
<path d="M165.007 71.7919C165.821 71.7919 166.48 71.1341 166.48 70.3225C166.48 69.511 165.821 68.8531 165.007 68.8531C164.194 68.8531 163.534 69.511 163.534 70.3225C163.534 71.1341 164.194 71.7919 165.007 71.7919Z" fill="white"/>
<path d="M159.697 148.888C159.598 149.053 159.441 149.181 159.348 149.351C159.295 149.432 159.274 149.529 159.288 149.625C159.302 149.72 159.35 149.807 159.423 149.87C159.523 149.913 159.633 149.924 159.739 149.901C161.875 149.635 163.88 148.728 165.489 147.302C165.757 147.077 165.994 146.818 166.195 146.532C166.383 146.247 166.542 145.898 166.858 145.779C167.051 146.608 167.15 147.455 167.155 148.305C167.155 148.866 167.075 149.503 166.617 149.828C166.433 149.942 166.232 150.024 166.02 150.071L165.021 150.353C164.844 150.42 164.652 150.438 164.465 150.406C164.348 150.375 164.244 150.3 164.123 150.278C163.991 150.264 163.857 150.281 163.733 150.329L162.869 150.58C162.576 150.656 162.291 150.756 162.015 150.878C161.767 150.995 161.54 151.145 161.299 151.275C160.895 151.477 160.477 151.647 160.047 151.783L158.527 152.31C158.111 152.472 157.677 152.583 157.234 152.641C156.929 152.667 156.617 152.641 156.314 152.692C156.093 152.731 155.871 152.815 155.628 152.833C155.244 152.845 154.867 152.733 154.551 152.515C154.428 152.446 154.321 152.351 154.237 152.237C154.016 151.9 154.208 151.454 154.421 151.112C154.795 150.462 155.327 149.917 155.969 149.528C156.234 149.382 156.519 149.276 156.791 149.144C157.568 148.769 158.154 148.142 158.886 147.714C159.578 147.31 160.022 148.354 159.697 148.888Z" fill="#F86D70"/>
<path d="M181.057 87.7989C181.86 88.3491 182.781 88.7063 183.746 88.8425C184.25 88.905 184.759 88.9322 185.267 88.9242C187.389 88.922 189.506 88.7456 191.599 88.3968C190.767 87.4812 189.925 86.5016 189.609 85.308C189.452 84.6751 189.419 84.0183 189.511 83.373C189.639 82.5486 189.837 81.7366 190.104 80.946C189.212 80.9927 188.317 80.9699 187.428 80.8776C186.922 80.8247 185.679 80.3657 185.239 80.7144C184.798 81.063 185.137 82.186 185.143 82.7133C185.145 82.7324 185.145 82.7516 185.143 82.7707C185.122 83.5739 184.949 84.3659 184.633 85.105C184 86.5303 182.629 87.704 181.057 87.7989Z" fill="#FBBEBE"/>
<path opacity="0.1" d="M185.146 82.7023C185.784 83.1183 186.504 83.3927 187.257 83.5069C188.011 83.621 188.78 83.5724 189.513 83.3642C189.641 82.5398 189.839 81.7278 190.106 80.9372C189.214 80.9839 188.319 80.9611 187.43 80.8688C186.924 80.8159 185.681 80.3569 185.241 80.7055C184.801 81.0541 185.139 82.175 185.146 82.7023Z" fill="black"/>
<path d="M188.065 83.3223C191.01 83.3223 193.397 80.9406 193.397 78.0028C193.397 75.0649 191.01 72.6833 188.065 72.6833C185.12 72.6833 182.733 75.0649 182.733 78.0028C182.733 80.9406 185.12 83.3223 188.065 83.3223Z" fill="#FBBEBE"/>
<path d="M165.443 104.918C165.441 105.347 165.551 105.769 165.762 106.143C165.973 106.517 166.278 106.83 166.646 107.051C167.057 107.266 167.496 107.421 167.951 107.51C170.384 108.097 172.887 108.569 175.393 108.426C175.936 108.421 176.473 108.309 176.972 108.095C177.22 107.985 177.438 107.817 177.608 107.606C177.778 107.394 177.894 107.145 177.947 106.879C177.95 106.747 177.975 106.617 178.022 106.493C178.119 106.358 178.246 106.245 178.392 106.164C178.62 105.993 178.794 105.761 178.896 105.495C178.997 105.228 179.021 104.939 178.964 104.66C179.267 104.797 179.586 104.49 179.73 104.19C179.873 103.89 179.984 103.528 180.289 103.398C180.497 103.309 180.731 103.362 180.953 103.305C181.304 103.215 181.519 102.864 181.766 102.61C182.271 102.072 182.989 101.794 183.648 101.461C185.612 100.474 187.211 98.91 188.779 97.3722C189.594 96.623 190.335 95.7969 190.991 94.9055C191.166 94.6492 191.329 94.3841 191.477 94.1112C191.95 93.2054 192.36 92.2685 192.705 91.307C192.904 90.7907 193.105 90.2479 193.023 89.7008C193.023 89.6522 193.005 89.6037 192.994 89.5529C192.892 89.2018 192.728 88.8717 192.51 88.5777C191.968 87.7835 191.258 87.0333 190.325 86.7862C189.392 86.5391 188.463 86.8369 187.514 87.0377C187.2 87.1079 186.882 87.1566 186.561 87.1833C185.557 87.2539 184.571 86.9848 183.593 86.7178L182.536 86.4266C182.007 86.2809 181.742 85.6433 181.209 85.5308C180.969 85.4948 180.725 85.5075 180.49 85.5683C179.404 85.7735 178.308 86.0405 177.35 86.592C177.136 86.7142 176.932 86.8529 176.74 87.0068C176.045 87.5246 175.545 88.2605 175.32 89.0962C175.099 90.0163 175.306 91.0003 175.085 91.9203C174.904 92.6793 174.446 93.3412 173.999 93.9811L171.394 97.7031C170.813 98.5753 170.174 99.4068 169.479 100.192C168.077 101.712 165.481 102.855 165.443 104.918Z" fill="#F86D70"/>
<path d="M172.396 69.3672C172.288 68.8575 172.208 68.328 171.927 67.8911C171.735 67.6168 171.502 67.3729 171.237 67.1675C170.808 66.7695 170.307 66.4572 169.76 66.2474C169.486 66.1448 169.191 66.1087 168.901 66.1421C168.61 66.1754 168.331 66.2774 168.088 66.4394C167.621 66.7924 167.424 67.3969 167.351 67.9838C167.229 68.7817 167.367 69.5977 167.745 70.3115C168.187 71.0969 168.981 71.6221 169.638 72.2487C170.115 72.7076 170.53 73.2268 170.872 73.7931C171.028 74.0867 171.217 74.362 171.434 74.6138C171.544 74.7372 171.681 74.8335 171.834 74.8952C171.988 74.9568 172.154 74.9821 172.319 74.9691C172.594 74.8963 172.845 74.7489 173.042 74.5432C173.312 74.3072 174.037 73.8813 174.059 73.5129C174.077 73.2106 173.511 72.5266 173.371 72.242C172.946 71.3206 172.619 70.357 172.396 69.3672Z" fill="#FBBEBE"/>
<path d="M153.66 130.977C154.323 132.212 155.062 133.404 155.661 134.684C156.009 135.427 156.309 136.19 156.696 136.914C157.119 137.702 157.638 138.434 158.081 139.211C159.187 141.175 159.812 143.39 160.385 145.572C161.986 145.334 163.526 144.794 164.923 143.979C165.017 143.926 165.108 143.868 165.195 143.805C165.569 143.538 165.882 143.194 166.111 142.796C165.582 140.811 165.041 138.774 163.964 137.011C163.612 136.438 163.209 135.908 162.858 135.332C161.812 133.688 161.595 131.617 160.399 130.079C160.284 129.924 160.223 129.737 160.223 129.545C160.223 129.353 160.284 129.166 160.399 129.011C160.536 128.832 160.757 128.662 160.715 128.44C160.684 128.279 160.516 128.133 160.58 127.983C160.611 127.91 160.686 127.87 160.744 127.817C160.947 127.632 160.92 127.312 160.94 127.039C160.985 126.341 161.403 125.73 161.807 125.161C161.889 125.027 161.998 124.911 162.126 124.819C162.234 124.753 162.362 124.722 162.471 124.656C162.851 124.42 162.825 123.864 163.008 123.451C163.247 122.908 163.848 122.633 164.244 122.193C164.746 121.633 164.872 120.854 165.403 120.364C165.458 120.313 165.516 120.266 165.578 120.223C165.348 121.057 165.243 121.92 165.266 122.785C165.215 125.75 165.958 128.817 165.611 131.762C165.337 134.097 166.779 136.427 168.822 137.596C169.624 138.018 170.461 138.369 171.323 138.646C172.602 139.098 173.88 139.564 175.134 140.087C176.019 140.453 176.903 140.85 177.757 141.272C178.82 141.785 179.853 142.357 180.853 142.984C182.085 143.765 183.319 144.559 184.192 145.726C185.039 145.704 185.816 145.197 186.351 144.541C186.886 143.886 187.22 143.094 187.532 142.311C187.804 141.633 188.074 140.938 188.094 140.208C188.094 140.13 188.072 140.053 188.031 139.986C187.989 139.919 187.93 139.866 187.859 139.831L182.007 136.742L180.902 136.164C178.507 134.895 176.036 133.722 173.628 132.455C173.466 132.501 173.334 132.318 173.287 132.159C173.241 132.001 173.208 131.802 173.055 131.731C172.978 131.696 172.88 131.696 172.834 131.634C172.796 131.577 172.782 131.508 172.794 131.44C172.872 130.284 173.708 129.221 173.539 128.076C173.469 127.586 173.214 127.105 173.318 126.626C173.396 126.293 173.635 126.024 173.761 125.708C174.046 125.002 173.761 124.164 174.075 123.464C174.284 123.011 174.427 122.529 174.497 122.035C174.648 121.05 174.95 120.094 175.393 119.202C175.605 118.749 175.882 118.33 176.215 117.957C176.392 117.77 176.589 117.6 176.755 117.406C177.266 116.803 177.452 116 177.598 115.226C177.859 113.82 178.04 112.358 177.713 110.97C177.602 110.495 177.434 110.026 177.441 109.538C177.441 108.896 177.73 108.144 177.284 107.678C177.095 107.511 176.867 107.395 176.62 107.343C175.58 107.063 174.518 106.867 173.447 106.758L168.568 106.125C168.004 106.088 167.453 105.945 166.942 105.703C166.279 105.339 165.837 104.662 165.571 103.956C164.713 104.58 164.39 105.743 163.707 106.551C163.373 106.945 162.962 107.263 162.601 107.625C162.153 108.094 161.744 108.598 161.376 109.132C160.356 110.529 159.33 111.936 158.601 113.5C158.222 114.315 157.937 115.164 157.623 116.007C156.431 119.332 154.487 122.487 153.68 125.922C153.481 126.763 152.966 127.52 152.888 128.38C152.797 129.291 153.22 130.174 153.66 130.977Z" fill="#434175"/>
<path opacity="0.1" d="M179.252 103.376C179.37 103.597 179.432 103.844 179.431 104.095C179.323 103.557 178.58 103.259 178.533 102.727C178.511 102.482 178.555 102.493 178.708 102.623C178.94 102.815 179.039 103.164 179.252 103.376Z" fill="black"/>
<path opacity="0.1" d="M176.994 105.008C177.15 105.141 177.266 105.313 177.332 105.507C177.456 105.779 177.48 106.086 177.399 106.374C177.29 106.323 177.253 106.191 177.219 106.074C177.169 105.893 177.095 105.72 176.998 105.56C176.91 105.421 176.505 105.09 176.509 104.938C176.503 104.708 176.885 104.927 176.994 105.008Z" fill="black"/>
<path opacity="0.1" d="M176.733 87.0068C177.076 87.2998 177.453 87.5503 177.856 87.7526C178.913 88.2865 180.083 88.5667 181.147 89.0764C181.672 89.3423 182.181 89.6369 182.673 89.9589C183.728 90.6208 184.781 91.2827 185.833 91.9556C186.087 92.1015 186.321 92.2787 186.53 92.4829C186.91 92.8889 186.908 93.5861 187.255 94.0274C187.447 94.2455 187.683 94.421 187.947 94.5426C188.211 94.6642 188.497 94.7292 188.788 94.7334C189.37 94.7383 189.949 94.6413 190.498 94.4466C190.83 94.3483 191.157 94.2297 191.475 94.0914C191.808 93.9514 192.123 93.7721 192.413 93.5574C192.703 93.354 192.95 93.0956 193.139 92.7969C193.329 92.4982 193.458 92.1651 193.518 91.8166C193.557 91.3351 193.493 90.8509 193.33 90.3958C193.243 90.0994 193.13 89.8108 192.994 89.5331C192.916 89.3755 192.826 89.2243 192.725 89.0808C191.999 88.0548 190.721 87.5717 189.485 87.3312C188.832 87.2054 188.169 87.1282 187.514 87.0179C187.2 87.0881 186.882 87.1367 186.561 87.1635C185.557 87.2341 184.571 86.9649 183.593 86.698L182.536 86.4067C182.007 86.2611 181.742 85.6235 181.209 85.5109C180.969 85.4749 180.725 85.4877 180.49 85.5484C179.404 85.7536 178.308 86.0206 177.35 86.5722C177.133 86.7004 176.927 86.8457 176.733 87.0068V87.0068Z" fill="black"/>
<path d="M174.156 72.8885C174.291 74.1748 175.379 75.1191 176.043 76.2289C176.366 76.7694 176.591 77.3607 176.881 77.9189C177.212 78.5299 177.581 79.1194 177.987 79.684L179.17 81.3983C179.867 82.4066 180.57 83.4237 181.459 84.2666C183.007 84.5291 184.312 85.6786 185.783 86.2368C186.961 86.6781 188.244 86.7443 189.48 86.9848C190.716 87.2253 191.995 87.7062 192.72 88.7344C192.991 89.1408 193.196 89.5876 193.326 90.0582C193.488 90.5126 193.552 90.9961 193.514 91.4769C193.454 91.8257 193.325 92.1592 193.135 92.4583C192.946 92.7575 192.699 93.0162 192.408 93.2199C191.827 93.6221 191.179 93.9207 190.495 94.1024C189.946 94.296 189.368 94.3931 188.786 94.3892C188.495 94.3848 188.208 94.3197 187.944 94.1981C187.679 94.0765 187.443 93.9011 187.251 93.6832C186.906 93.2419 186.908 92.5381 186.528 92.1388C186.319 91.9345 186.085 91.7573 185.831 91.6115L182.671 89.6258C182.179 89.3037 181.669 89.0091 181.145 88.7432C180.081 88.2247 178.911 87.9445 177.854 87.4194C176.797 86.8943 175.813 86.0052 175.605 84.8424C174.961 81.2704 172.482 78.2587 170.364 75.3088C170.432 75.2956 170.412 75.1367 170.437 75.0706C170.743 74.3782 171.294 73.8223 171.985 73.5085C172.666 73.14 173.422 73.0451 174.156 72.8885Z" fill="#F86D70"/>
<path d="M185.327 72.915C185.287 72.5277 185.364 72.1375 185.548 71.7941C185.9 71.2117 186.634 71.0065 187.302 70.8697C187.97 70.7329 188.585 70.627 189.23 70.5343C189.756 70.429 190.296 70.4192 190.825 70.5057C191.546 70.6645 192.152 71.1477 192.815 71.4456C193.611 71.8008 194.496 71.8868 195.345 72.0898C196.194 72.2928 197.068 72.6171 197.601 73.3077C198.006 73.8306 198.167 74.4991 198.289 75.15C199.299 80.5842 198.211 86.1574 198.006 91.6799C197.924 93.8288 198.021 96.1256 199.253 97.8929L195.668 97.798C194.75 97.7738 193.764 97.7252 193.043 97.1604C192.406 96.664 192.105 95.8631 191.835 95.1063C191.591 94.5184 191.436 93.8975 191.375 93.264C191.32 91.9667 192.059 90.6936 191.818 89.4161C191.639 88.463 190.933 87.6908 190.199 87.0664C189.465 86.442 188.629 85.897 188.025 85.1359C186.952 83.779 186.747 81.9278 186.879 80.2047C186.959 79.181 187.145 78.155 187.054 77.1313C187.009 76.348 186.726 75.5969 186.243 74.9779C185.679 74.2983 185.38 73.8747 185.327 72.915Z" fill="#434175"/>
<path opacity="0.1" d="M185.548 71.7942C185.893 71.2205 186.61 71.0131 187.266 70.8785C186.918 71.0008 186.619 71.2332 186.415 71.5404C186.232 71.885 186.156 72.2756 186.194 72.6634C186.243 73.6232 186.541 74.0468 187.112 74.7264C187.597 75.3445 187.881 76.0959 187.926 76.8798C188.014 77.9035 187.83 78.9272 187.751 79.9532C187.616 81.6741 187.822 83.5274 188.896 84.8843C189.498 85.6455 190.327 86.1883 191.07 86.8149C191.813 87.4415 192.51 88.2115 192.689 89.1646C192.928 90.4399 192.189 91.7151 192.247 93.0125C192.305 93.6454 192.46 94.2658 192.705 94.8525C192.977 95.6115 193.277 96.4124 193.912 96.9089C194.633 97.4737 195.622 97.5222 196.539 97.5465L199.078 97.6127C199.134 97.7053 199.193 97.798 199.255 97.8885L195.67 97.7936C194.753 97.7693 193.766 97.7208 193.045 97.156C192.408 96.6595 192.108 95.8586 191.838 95.1019C191.593 94.514 191.438 93.8931 191.378 93.2596C191.322 91.9623 192.061 90.6892 191.82 89.4117C191.641 88.4586 190.935 87.6864 190.201 87.062C189.467 86.4376 188.631 85.8926 188.027 85.1314C186.955 83.7746 186.749 81.9234 186.882 80.2003C186.961 79.1765 187.147 78.1506 187.056 77.1269C187.011 76.3436 186.728 75.5925 186.245 74.9735C185.674 74.2939 185.376 73.8703 185.325 72.9106C185.287 72.5246 185.364 72.136 185.548 71.7942V71.7942Z" fill="black"/>
<path opacity="0.1" d="M158.616 127.798L165.202 143.805C165.576 143.538 165.888 143.194 166.118 142.796C165.589 140.811 165.047 138.774 163.97 137.011C163.618 136.438 163.216 135.908 162.864 135.332C161.818 133.688 161.602 131.617 160.405 130.079C160.291 129.924 160.229 129.737 160.229 129.545C160.229 129.353 160.291 129.166 160.405 129.011C160.542 128.832 160.763 128.662 160.721 128.44C160.69 128.279 160.522 128.133 160.586 127.983C160.617 127.91 160.693 127.87 160.75 127.817C160.954 127.632 160.927 127.312 160.947 127.039C160.991 126.341 161.409 125.73 161.814 125.161C161.896 125.027 162.004 124.911 162.132 124.819C162.241 124.753 162.369 124.722 162.477 124.656C162.858 124.42 162.831 123.864 163.015 123.451C163.254 122.908 163.855 122.633 164.251 122.193C164.753 121.633 164.879 120.854 165.41 120.364L165.456 120.25L164.959 117.161L158.616 127.798Z" fill="black"/>
<path d="M216.078 146.915C220.225 146.915 223.587 146.27 223.587 145.475C223.587 144.679 220.225 144.034 216.078 144.034C211.932 144.034 208.57 144.679 208.57 145.475C208.57 146.27 211.932 146.915 216.078 146.915Z" fill="#5C6AFF"/>
<path d="M216.204 146.002C216.687 146.002 217.078 145.491 217.078 144.861C217.078 144.231 216.687 143.721 216.204 143.721C215.722 143.721 215.331 144.231 215.331 144.861C215.331 145.491 215.722 146.002 216.204 146.002Z" fill="#3F3D56"/>
<path d="M216.204 144.608C216.687 144.608 217.078 144.097 217.078 143.467C217.078 142.837 216.687 142.326 216.204 142.326C215.722 142.326 215.331 142.837 215.331 143.467C215.331 144.097 215.722 144.608 216.204 144.608Z" fill="#3F3D56"/>
<path d="M216.204 143.211C216.687 143.211 217.078 142.7 217.078 142.07C217.078 141.44 216.687 140.93 216.204 140.93C215.722 140.93 215.331 141.44 215.331 142.07C215.331 142.7 215.722 143.211 216.204 143.211Z" fill="#3F3D56"/>
<path d="M216.204 141.817C216.687 141.817 217.078 141.306 217.078 140.676C217.078 140.046 216.687 139.535 216.204 139.535C215.722 139.535 215.331 140.046 215.331 140.676C215.331 141.306 215.722 141.817 216.204 141.817Z" fill="#3F3D56"/>
<path d="M216.204 140.42C216.687 140.42 217.078 139.909 217.078 139.279C217.078 138.649 216.687 138.139 216.204 138.139C215.722 138.139 215.331 138.649 215.331 139.279C215.331 139.909 215.722 140.42 216.204 140.42Z" fill="#3F3D56"/>
<path d="M216.204 139.026C216.687 139.026 217.078 138.515 217.078 137.885C217.078 137.255 216.687 136.744 216.204 136.744C215.722 136.744 215.331 137.255 215.331 137.885C215.331 138.515 215.722 139.026 216.204 139.026Z" fill="#3F3D56"/>
<path d="M216.204 137.631C216.687 137.631 217.078 137.121 217.078 136.491C217.078 135.861 216.687 135.35 216.204 135.35C215.722 135.35 215.331 135.861 215.331 136.491C215.331 137.121 215.722 137.631 216.204 137.631Z" fill="#3F3D56"/>
<path d="M212.931 126.942C212.812 126.79 212.703 126.63 212.606 126.463L214.902 126.085L212.418 126.105C212.18 125.588 212.051 125.028 212.037 124.459C212.023 123.89 212.126 123.324 212.339 122.796L215.671 124.519L212.597 122.266C212.884 121.767 213.271 121.333 213.734 120.99C214.197 120.647 214.725 120.403 215.287 120.273C215.849 120.144 216.431 120.131 216.998 120.236C217.565 120.342 218.104 120.563 218.581 120.885C219.058 121.208 219.464 121.625 219.772 122.111C220.08 122.598 220.284 123.142 220.371 123.711C220.459 124.279 220.428 124.859 220.28 125.415C220.132 125.971 219.871 126.491 219.513 126.942C219.7 127.177 219.86 127.432 219.991 127.703L217.009 129.247L220.19 128.184C220.336 128.615 220.41 129.068 220.411 129.523C220.412 130.46 220.096 131.371 219.513 132.107C219.999 132.723 220.301 133.463 220.385 134.242C220.469 135.021 220.331 135.808 219.988 136.513C219.645 137.218 219.109 137.813 218.443 138.229C217.777 138.644 217.008 138.865 216.222 138.865C215.436 138.865 214.667 138.644 214.001 138.229C213.335 137.813 212.8 137.218 212.456 136.513C212.113 135.808 211.976 135.021 212.06 134.242C212.144 133.463 212.446 132.723 212.931 132.107C212.351 131.37 212.036 130.461 212.036 129.524C212.036 128.587 212.351 127.678 212.931 126.942V126.942Z" fill="#5C6AFF"/>
<path opacity="0.1" d="M220.411 129.523C220.412 130.46 220.096 131.371 219.513 132.107C219.999 132.723 220.301 133.463 220.385 134.242C220.469 135.021 220.331 135.808 219.988 136.513C219.644 137.218 219.109 137.813 218.443 138.229C217.777 138.644 217.008 138.865 216.222 138.865C215.436 138.865 214.667 138.644 214.001 138.229C213.335 137.813 212.8 137.218 212.456 136.513C212.113 135.808 211.976 135.021 212.06 134.242C212.144 133.463 212.446 132.723 212.931 132.107C212.37 131.396 220.411 129.055 220.411 129.523Z" fill="black"/>
<path d="M230.701 130.443C233.489 130.443 235.75 130.009 235.75 129.474C235.75 128.939 233.489 128.506 230.701 128.506C227.913 128.506 225.652 128.939 225.652 129.474C225.652 130.009 227.913 130.443 230.701 130.443Z" fill="#5C6AFF"/>
<path d="M230.787 129.832C231.112 129.832 231.376 129.488 231.376 129.064C231.376 128.64 231.112 128.296 230.787 128.296C230.462 128.296 230.199 128.64 230.199 129.064C230.199 129.488 230.462 129.832 230.787 129.832Z" fill="#3F3D56"/>
<path d="M230.787 128.894C231.112 128.894 231.376 128.55 231.376 128.126C231.376 127.702 231.112 127.358 230.787 127.358C230.462 127.358 230.199 127.702 230.199 128.126C230.199 128.55 230.462 128.894 230.787 128.894Z" fill="#3F3D56"/>
<path d="M230.787 127.954C231.112 127.954 231.376 127.61 231.376 127.186C231.376 126.762 231.112 126.419 230.787 126.419C230.462 126.419 230.199 126.762 230.199 127.186C230.199 127.61 230.462 127.954 230.787 127.954Z" fill="#3F3D56"/>
<path d="M230.787 127.017C231.112 127.017 231.376 126.673 231.376 126.249C231.376 125.825 231.112 125.481 230.787 125.481C230.462 125.481 230.199 125.825 230.199 126.249C230.199 126.673 230.462 127.017 230.787 127.017Z" fill="#3F3D56"/>
<path d="M230.787 126.079C231.112 126.079 231.376 125.735 231.376 125.311C231.376 124.887 231.112 124.543 230.787 124.543C230.462 124.543 230.199 124.887 230.199 125.311C230.199 125.735 230.462 126.079 230.787 126.079Z" fill="#3F3D56"/>
<path d="M230.787 125.141C231.112 125.141 231.376 124.797 231.376 124.373C231.376 123.949 231.112 123.606 230.787 123.606C230.462 123.606 230.199 123.949 230.199 124.373C230.199 124.797 230.462 125.141 230.787 125.141Z" fill="#3F3D56"/>
<path d="M230.787 124.201C231.112 124.201 231.376 123.857 231.376 123.433C231.376 123.009 231.112 122.666 230.787 122.666C230.462 122.666 230.199 123.009 230.199 123.433C230.199 123.857 230.462 124.201 230.787 124.201Z" fill="#3F3D56"/>
<path d="M228.587 117.015C228.505 116.914 228.431 116.806 228.366 116.693L229.914 116.439L228.244 116.453C228.073 116.085 227.985 115.684 227.985 115.279C227.985 114.918 228.054 114.561 228.189 114.226L230.431 115.387L228.363 113.871C228.555 113.534 228.815 113.24 229.126 113.008C229.438 112.776 229.794 112.61 230.172 112.522C230.551 112.434 230.944 112.425 231.326 112.496C231.708 112.566 232.071 112.715 232.393 112.933C232.714 113.151 232.987 113.433 233.195 113.761C233.402 114.089 233.538 114.456 233.596 114.84C233.654 115.223 233.631 115.615 233.53 115.989C233.429 116.363 233.251 116.713 233.008 117.015C233.133 117.174 233.241 117.345 233.328 117.527L231.325 118.566L233.461 117.849C233.612 118.293 233.65 118.768 233.571 119.23C233.492 119.693 233.298 120.128 233.008 120.497C233.336 120.911 233.54 121.409 233.597 121.934C233.654 122.459 233.562 122.989 233.332 123.464C233.101 123.939 232.741 124.34 232.292 124.62C231.844 124.901 231.325 125.049 230.796 125.049C230.267 125.049 229.749 124.901 229.3 124.62C228.852 124.34 228.492 123.939 228.261 123.464C228.03 122.989 227.938 122.459 227.995 121.934C228.052 121.409 228.257 120.911 228.585 120.497C228.194 120.002 227.981 119.39 227.981 118.76C227.981 118.13 228.194 117.519 228.585 117.024L228.587 117.015Z" fill="#5C6AFF"/>
<path opacity="0.1" d="M233.614 118.752C233.614 119.381 233.402 119.993 233.012 120.488C233.34 120.902 233.544 121.4 233.602 121.925C233.659 122.45 233.567 122.98 233.336 123.455C233.105 123.931 232.745 124.331 232.297 124.611C231.848 124.892 231.33 125.04 230.801 125.04C230.271 125.04 229.753 124.892 229.305 124.611C228.856 124.331 228.496 123.931 228.265 123.455C228.034 122.98 227.942 122.45 228 121.925C228.057 121.4 228.261 120.902 228.589 120.488C228.209 120.009 233.614 118.436 233.614 118.752Z" fill="black"/>
</g>
<defs>
<linearGradient id="paint0_linear" x1="176.032" y1="153.159" x2="176.032" y2="65.8635" gradientUnits="userSpaceOnUse">
<stop stop-color="#808080" stop-opacity="0.25"/>
<stop offset="0.54" stop-color="#808080" stop-opacity="0.12"/>
<stop offset="1" stop-color="#808080" stop-opacity="0.1"/>
</linearGradient>
<clipPath id="clip0">
<rect width="253" height="154" fill="white"/>
</clipPath>
</defs>
</svg>
