<svg width="236" height="174" viewBox="0 0 236 174" fill="none" xmlns="http://www.w3.org/2000/svg">
<g clip-path="url(#clip0)">
<path d="M94.5967 174C116.255 174 133.813 170.723 133.813 166.681C133.813 162.639 116.255 159.363 94.5967 159.363C72.9383 159.363 55.3806 162.639 55.3806 166.681C55.3806 170.723 72.9383 174 94.5967 174Z" fill="#F2F2F2"/>
<path d="M224.28 20.3384H15.1665V133.266H224.28V20.3384Z" fill="#F2F2F2"/>
<path d="M224.281 108.929H204.518V133.266H224.281V108.929Z" fill="#3F3D56"/>
<path d="M221.457 122.385C221.457 127.112 218.655 128.762 215.199 128.762C211.743 128.762 208.942 127.112 208.942 122.385C208.942 117.659 215.199 111.646 215.199 111.646C215.199 111.646 221.457 117.659 221.457 122.385Z" fill="#5C6AFF"/>
<path d="M214.972 128.039L215.036 124.083L217.703 119.19L215.046 123.463L215.075 121.684L216.913 118.144L215.082 121.214L215.134 118.015L217.102 115.196L215.142 117.512L215.175 111.646L214.971 119.411L214.988 119.091L212.986 116.019L214.956 119.706L214.769 123.278L214.764 123.184L212.457 119.951L214.757 123.519L214.733 123.965L214.729 123.972L214.731 124.009L214.258 133.073H214.89L214.966 128.391L217.26 124.832L214.972 128.039Z" fill="#3F3D56"/>
<path d="M30.5628 10.1404C29.5629 10.1404 28.5855 9.84304 27.7541 9.28592C26.9228 8.7288 26.2748 7.93694 25.8922 7.01048C25.5095 6.08403 25.4094 5.06458 25.6045 4.08106C25.7995 3.09753 26.281 2.19411 26.988 1.48503C27.6951 0.775949 28.5959 0.293059 29.5765 0.0974245C30.5572 -0.0982102 31.5737 0.00219749 32.4975 0.385949C33.4213 0.7697 34.2108 1.41956 34.7663 2.25335C35.3218 3.08714 35.6183 4.06741 35.6183 5.0702C35.6168 6.41444 35.0837 7.70318 34.1359 8.6537C33.1882 9.60421 31.9032 10.1389 30.5628 10.1404V10.1404ZM30.5628 0.46093C29.6538 0.46093 28.7653 0.731258 28.0095 1.23773C27.2537 1.7442 26.6646 2.46407 26.3168 3.30631C25.9689 4.14854 25.8779 5.07532 26.0552 5.96943C26.2326 6.86354 26.6703 7.68483 27.313 8.32945C27.9558 8.97407 28.7747 9.41306 29.6662 9.59091C30.5577 9.76876 31.4818 9.67748 32.3216 9.32861C33.1614 8.97975 33.8792 8.38897 34.3842 7.63098C34.8892 6.87299 35.1587 5.98183 35.1587 5.0702C35.1573 3.84818 34.6727 2.6766 33.8111 1.8125C32.9495 0.948395 31.7813 0.462328 30.5628 0.46093V0.46093Z" fill="#3F3D56"/>
<path d="M2.98734 32.7258C4.63721 32.7258 5.97468 31.3845 5.97468 29.7298C5.97468 28.0751 4.63721 26.7338 2.98734 26.7338C1.33748 26.7338 0 28.0751 0 29.7298C0 31.3845 1.33748 32.7258 2.98734 32.7258Z" fill="#3F3D56"/>
<path d="M233.013 54.6199C234.663 54.6199 236 53.2785 236 51.6238C236 49.9692 234.663 48.6278 233.013 48.6278C231.363 48.6278 230.025 49.9692 230.025 51.6238C230.025 53.2785 231.363 54.6199 233.013 54.6199Z" fill="#3F3D56"/>
<path d="M196.13 43.3848H43.5461V44.7675H196.13V43.3848Z" fill="#3F3D56"/>
<path d="M196.13 55.8298H43.5461V57.2126H196.13V55.8298Z" fill="#3F3D56"/>
<path d="M196.13 68.2748H43.5461V69.6576H196.13V68.2748Z" fill="#3F3D56"/>
<path d="M73.1899 38.3146H69.5132V49.8377H73.1899V38.3146Z" fill="#5C6AFF"/>
<path d="M115.013 50.7596H111.336V62.2828H115.013V50.7596Z" fill="#5C6AFF"/>
<path d="M186.709 63.2046H183.032V74.7278H186.709V63.2046Z" fill="#5C6AFF"/>
<path d="M97.7779 96.8523H43.5461V98.2351H97.7779V96.8523Z" fill="#3F3D56"/>
<path d="M70.662 101.923H43.5461V103.305H70.662V101.923Z" fill="#3F3D56"/>
<path d="M51.8188 115.289H43.3164V106.762H51.589V107.223H43.776V114.828H51.3592V110.493H51.8188V115.289Z" fill="#3F3D56"/>
<path d="M196.13 96.8523H141.899V98.2351H196.13V96.8523Z" fill="#3F3D56"/>
<path d="M159.363 101.923H141.899V103.305H159.363V101.923Z" fill="#3F3D56"/>
<path d="M196.131 101.923H178.666V103.305H196.131V101.923Z" fill="#3F3D56"/>
<path d="M150.171 115.289H141.669V106.762H150.171V115.289ZM142.129 114.828H149.712V107.223H142.129V114.828Z" fill="#3F3D56"/>
<path d="M86.8682 76.8084H80.8347V73.8447H85.8831L86.9914 74.4621L86.8682 76.8084Z" fill="#575A89"/>
<path d="M76.4019 158.437L76.648 162.882L80.3422 162.141L79.7263 157.696L76.4019 158.437Z" fill="#FFB9B9"/>
<path d="M93.887 156.09C93.887 156.09 94.0101 159.795 93.6407 160.783C93.2713 161.771 94.6258 162.265 94.6258 162.265H97.581L99.3049 162.512V160.66C99.3049 160.66 97.3347 157.572 97.3347 155.843C97.3347 154.114 93.887 156.09 93.887 156.09Z" fill="#FFB9B9"/>
<path d="M77.0176 162.141C77.0176 162.141 79.4803 160.975 80.3422 161.681C81.2042 162.388 84.4057 168.44 83.1743 168.81C83.1743 168.81 82.3124 170.292 79.3572 169.304C76.402 168.316 76.402 167.205 76.402 167.205C76.402 167.205 75.54 166.464 75.54 166.217C75.54 165.97 75.9094 163.747 75.9094 163.747C75.9094 163.747 76.1827 161.887 76.6001 162.014L77.0176 162.141Z" fill="#2F2E41"/>
<path d="M94.1331 160.289C94.1331 160.289 93.7637 159.919 93.5174 160.289C93.2712 160.66 91.9167 165.352 93.148 165.599C94.3794 165.846 96.2264 166.711 96.4727 166.464C96.6784 166.201 96.8444 165.91 96.9652 165.599C96.9652 165.599 98.9353 166.464 99.551 167.205C100.167 167.946 107.555 169.551 107.308 167.205C107.062 164.858 103.368 162.882 103.368 162.882L99.3047 160.166C99.3047 160.166 97.704 160.289 97.3346 161.03C96.9652 161.771 94.3794 161.647 94.1331 160.289Z" fill="#2F2E41"/>
<path d="M58.0549 112.498C58.0549 112.498 56.7004 114.227 56.9467 114.35C57.1929 114.474 62.6108 115.708 65.566 114.968C68.5213 114.227 74.678 114.35 75.0474 113.486C75.4168 112.621 79.9727 101.877 79.9727 101.877L78.4951 93.7269L76.8944 91.6275L73.2004 88.4167L65.8123 102.248L58.0549 112.498Z" fill="#575A89"/>
<path opacity="0.1" d="M58.0549 112.498C58.0549 112.498 56.7004 114.227 56.9467 114.35C57.1929 114.474 62.6108 115.708 65.566 114.968C68.5213 114.227 74.678 114.35 75.0474 113.486C75.4168 112.621 79.9727 101.877 79.9727 101.877L78.4951 93.7269L76.8944 91.6275L73.2004 88.4167L65.8123 102.248L58.0549 112.498Z" fill="black"/>
<path d="M73.6929 109.534C73.6929 109.534 71.969 115.708 73.6929 124.229C75.4168 132.75 73.8161 134.603 74.1855 134.973C74.5549 135.344 74.678 135.22 74.678 135.591C74.678 135.961 75.0474 137.69 74.678 138.307C74.3086 138.925 74.3086 158.56 75.4168 159.054C76.525 159.548 79.7265 160.783 80.3422 159.054C80.9578 157.325 80.4653 144.853 80.7116 144.235C80.9578 143.618 80.9578 142.136 80.9578 141.765C80.9578 141.395 81.6966 137.196 81.8198 136.085C81.9429 134.973 82.3123 132.75 82.3123 132.75C82.3123 132.75 82.066 123.982 82.8048 121.389C83.5436 118.796 83.7899 118.549 83.7899 118.549L89.7003 133.985C89.7003 133.985 89.2078 135.591 89.7003 136.085C90.1929 136.579 89.5772 136.455 90.0697 137.32C90.5623 138.184 91.0548 138.431 91.0548 138.925C91.0548 139.419 90.5623 139.419 90.8085 139.789C91.0548 140.16 91.4242 141.518 91.4242 141.518L90.8085 143C90.8085 143 91.1779 146.087 91.6705 147.94C92.163 149.792 92.163 157.325 92.7787 157.449C93.3944 157.572 98.1966 158.931 98.1966 156.09C98.1966 153.25 97.8272 140.901 97.8272 140.901C97.8272 140.901 97.0884 139.048 97.0884 138.554C97.0884 138.06 96.9652 137.814 97.2115 137.567C97.4578 137.32 97.704 136.826 97.3346 136.455C96.9652 136.085 97.0884 135.591 97.0884 135.097C97.0671 134.432 96.9846 133.77 96.8421 133.121C96.719 132.627 94.3794 117.19 94.3794 117.19C94.3794 117.19 94.872 115.338 94.3794 115.215C93.8869 115.091 93.8869 114.103 93.8869 113.609C93.8869 113.115 95.1182 106.941 93.6406 106.941C92.163 106.941 73.6929 109.534 73.6929 109.534Z" fill="#2F2E41"/>
<path d="M57.4392 102.124L55.7153 102.989C55.7153 102.989 49.5586 106.323 52.2676 108.175C54.9765 110.028 57.6854 105.582 57.6854 105.582L60.2712 103.606L57.4392 102.124Z" fill="#FFB9B9"/>
<path d="M81.4504 68.2876C81.4504 68.2876 80.9579 73.9682 78.3721 75.2031C75.7863 76.438 77.5102 85.6999 77.5102 85.6999L81.081 89.1577L87.3609 87.3053L88.0997 83.1066L88.7153 78.7844L87.2377 76.5615C87.2377 76.5615 85.3907 76.0676 86.1295 71.1279C86.8683 66.1882 81.4504 68.2876 81.4504 68.2876Z" fill="#FFB9B9"/>
<path d="M77.7565 77.179C77.7565 77.179 80.5885 86.5644 82.5587 86.5644C84.5288 86.5644 85.637 84.3415 85.8833 81.6247C86.1296 78.9079 87.7303 75.9441 87.7303 75.9441L91.5475 79.4018C91.5475 79.4018 94.6258 106.694 94.3795 107.434C94.1333 108.175 84.5288 109.04 80.7117 110.151C76.8945 111.263 73.0774 110.398 73.0774 109.781C73.0774 109.231 75.0308 104.469 73.5444 100.991C73.0015 99.7521 72.6343 98.443 72.4537 97.1019C72.2236 95.271 72.01 93.0554 72.2155 92.3685C72.5849 91.1336 74.555 78.0434 74.555 78.0434L77.7565 77.179Z" fill="#5C6AFF"/>
<path d="M79.8412 73.7716C79.8412 73.7716 77.6332 74.9561 76.6482 75.4501C75.6631 75.9441 69.6295 77.426 69.5064 78.1669C69.3833 78.9079 70.3683 89.2812 69.8758 90.3926C69.3833 91.504 64.4579 101.383 64.4579 101.383L64.2117 103.483C64.2117 103.483 56.0848 113.239 57.0699 114.35C58.055 115.461 61.749 110.892 61.749 110.892C61.749 110.892 69.999 97.6786 70.2452 97.1847C70.4915 96.6907 75.54 87.5523 76.2788 87.3053C77.0176 87.0583 78.7415 76.685 78.9877 76.1911C79.234 75.6971 80.2022 73.5751 79.8412 73.7716Z" fill="#575A89"/>
<path d="M70.1222 78.0434H69.3834C69.3834 78.0434 66.6744 88.4168 65.9356 89.7752C65.1968 91.1336 65.0737 93.3564 64.9506 93.7269C64.8274 94.0974 64.3349 93.9739 64.2118 94.8383C64.0887 95.7028 62.8573 96.8142 61.8722 97.3082C60.8872 97.8021 56.4543 102.001 56.5775 102.124C56.7006 102.248 58.0551 106.57 58.917 106.57C59.779 106.57 63.2267 102.371 63.5961 102.371C63.9655 102.371 65.5663 100.889 65.8125 100.766C66.0588 100.642 72.3386 89.0342 72.0924 86.1939C71.8461 83.3536 70.1222 78.0434 70.1222 78.0434Z" fill="#575A89"/>
<path d="M100.845 110.037L102.362 111.23C102.362 111.23 107.73 115.731 104.706 117.003C101.683 118.275 99.9148 113.375 99.9148 113.375L97.7751 110.921L100.845 110.037Z" fill="#FFB9B9"/>
<path d="M85.979 73.918C85.979 73.918 87.6071 74.7092 88.3459 75.3266C89.0847 75.9441 94.7489 77.5495 94.7489 78.0434C94.7489 78.5374 94.1332 86.1939 94.1332 86.1939L94.9952 99.778C94.9952 99.778 96.2265 115.091 96.4728 115.461C96.7191 115.832 97.0885 117.808 96.4728 117.808C95.8571 117.808 92.7788 114.35 92.9019 112.621C93.025 110.892 93.887 106.941 93.025 105.953C92.1631 104.965 88.0997 88.4168 88.0997 87.4288C88.0997 86.4409 86.3758 76.5615 86.4989 76.3146C86.622 76.0676 85.979 73.918 85.979 73.918Z" fill="#575A89"/>
<path d="M92.9018 77.9199L94.7488 78.0434L99.3047 96.6907C99.3047 96.6907 99.6741 99.0371 99.7973 99.284C99.9204 99.531 101.767 110.275 101.029 110.645C100.29 111.016 97.8271 112.374 97.704 111.51C97.5809 110.645 96.3495 105.829 95.1182 104.718C93.8869 103.606 92.6555 84.465 92.6555 84.465L92.9018 77.9199Z" fill="#575A89"/>
<path d="M85.5138 71.6218C88.302 71.6218 90.5623 69.355 90.5623 66.5587C90.5623 63.7624 88.302 61.4955 85.5138 61.4955C82.7256 61.4955 80.4653 63.7624 80.4653 66.5587C80.4653 69.355 82.7256 71.6218 85.5138 71.6218Z" fill="#FFB9B9"/>
<path d="M81.9908 66.9285C82.312 66.763 82.7347 66.9187 83.0312 67.2789C83.188 66.526 83.518 65.8202 83.9947 65.2178C84.4715 64.6153 85.0818 64.1327 85.7773 63.8085C86.4727 63.4842 87.2341 63.3273 88.0007 63.3501C88.7672 63.3729 89.5179 63.5748 90.193 63.9399V63.4252C90.193 62.2911 89.7438 61.2035 88.9442 60.4016C88.1446 59.5997 87.0602 59.1492 85.9294 59.1492H84.9046C83.8527 59.1492 82.8111 59.357 81.8393 59.7607C80.8674 60.1644 79.9844 60.7561 79.2406 61.5021C78.4968 62.248 77.9068 63.1336 77.5043 64.1082C77.1017 65.0829 76.8945 66.1275 76.8945 67.1825V68.6162C76.8944 69.9468 77.2618 71.2514 77.956 72.3853C78.6502 73.5193 79.644 74.4381 80.8272 75.0401L85.4379 72.5921C84.7701 72.2147 84.1993 71.6863 83.7708 71.0489C83.3424 70.4115 83.0681 69.6826 82.9697 68.9202C82.5795 69.0911 82.057 68.8146 81.7852 68.2839C81.5055 67.7379 81.5976 67.131 81.9908 66.9285Z" fill="#2F2E41"/>
<path d="M44.9441 109.51L47.4528 112.351L52.9366 106.96" stroke="#57B894" stroke-width="4" stroke-miterlimit="10"/>
</g>
<defs>
<clipPath id="clip0">
<rect width="236" height="174" fill="white"/>
</clipPath>
</defs>
</svg>
