<svg width="51" height="51" viewBox="0 0 51 51" fill="none" xmlns="http://www.w3.org/2000/svg">
<path d="M1.08272 12.5371C1.09697 6.16414 6.27486 1.00935 12.6479 1.0236L38.6114 1.08165C44.9844 1.0959 50.1392 6.27379 50.1249 12.6468L50.0669 38.6103C50.0526 44.9833 44.8747 50.1381 38.5017 50.1239L12.5382 50.0658C6.16522 50.0516 1.01043 44.8737 1.02468 38.5007L1.08272 12.5371Z" fill="#FF2773"/>
<path d="M20.6797 21.7681L29.9989 21.7889C30.2169 21.7894 30.3956 21.6094 30.3961 21.3889L30.4144 13.223C30.4153 12.782 30.7728 12.4219 31.2087 12.4229L35.3565 12.4322C35.7924 12.4332 36.1482 12.7948 36.1472 13.2358L36.1179 26.3667C36.1169 26.8077 35.7594 27.1678 35.3235 27.1668L30.3832 27.1558L20.6677 27.1341C20.4497 27.1336 20.271 27.3136 20.2705 27.5341L20.2517 35.9205C20.2507 36.3615 19.8933 36.7216 19.4574 36.7206L15.3096 36.7113C14.8737 36.7104 14.5179 36.3487 14.5188 35.9077L14.5696 13.1876C14.5706 12.7466 14.9281 12.3865 15.364 12.3875L19.5118 12.3968C19.9477 12.3977 20.3035 12.7594 20.3025 13.2004L20.2843 21.3596C20.2838 21.5868 20.4617 21.7676 20.6797 21.7681Z" fill="white"/>
<path d="M37.075 36.9193C37.0705 38.9418 35.3454 40.6792 33.3564 40.6748C31.3539 40.6703 29.6165 38.9251 29.621 36.9026C29.6255 34.9202 31.3706 33.2163 33.373 33.2208C35.3621 33.2253 37.0794 34.9369 37.075 36.9193Z" fill="white"/>
</svg>
